<svg width="325" height="281" viewBox="0 0 325 281" fill="none" xmlns="http://www.w3.org/2000/svg">
<g style="mix-blend-mode:multiply">
<path d="M134.86 36.6514C52.8886 101.798 22.9762 147.777 16.231 160.966C9.58638 173.953 3.87771 187.629 1.71956 202.063C-0.438593 216.497 1.1781 231.837 8.42608 244.507C16.2542 258.191 30.0695 267.721 44.9213 273.012C59.7731 278.295 75.7155 279.718 91.4724 280.205C127.217 281.319 163.101 277.869 197.988 269.972C220.087 264.967 241.971 258.106 261.703 246.959C269.918 242.318 294.524 226.538 309.933 200.284C349.839 132.322 302.422 33.3716 261.069 11.2564C247.006 3.73767 232.309 1.62594 232.309 1.62594C227.591 0.94523 210.751 -1.07369 184.791 8.03077C160.587 16.5164 144.359 29.1018 134.86 36.6514Z" fill="#3C9CD7"/>
</g>
</svg>
