<svg width="37" height="38" viewBox="0 0 37 38" fill="none" xmlns="http://www.w3.org/2000/svg">
<path d="M11.1346 0.784912H26.4352C32.264 0.784912 36.9999 5.52083 36.9999 11.3496V26.6503C36.9999 29.4522 35.8869 32.1394 33.9056 34.1207C31.9243 36.102 29.2371 37.215 26.4352 37.215H11.1346C5.30574 37.215 0.569824 32.4791 0.569824 26.6503V11.3496C0.569824 8.5477 1.68289 5.86052 3.66416 3.87925C5.64543 1.89798 8.33261 0.784912 11.1346 0.784912ZM10.7703 4.42792C9.03112 4.42792 7.36321 5.11879 6.13346 6.34855C4.9037 7.5783 4.21283 9.24621 4.21283 10.9853V27.0146C4.21283 30.6394 7.14546 33.572 10.7703 33.572H26.7995C28.5386 33.572 30.2065 32.8811 31.4363 31.6514C32.6661 30.4216 33.3569 28.7537 33.3569 27.0146V10.9853C33.3569 7.36055 30.4243 4.42792 26.7995 4.42792H10.7703ZM28.3478 7.16018C28.9516 7.16018 29.5308 7.40007 29.9578 7.82706C30.3848 8.25406 30.6247 8.8332 30.6247 9.43706C30.6247 10.0409 30.3848 10.6201 29.9578 11.0471C29.5308 11.4741 28.9516 11.7139 28.3478 11.7139C27.7439 11.7139 27.1648 11.4741 26.7378 11.0471C26.3108 10.6201 26.0709 10.0409 26.0709 9.43706C26.0709 8.8332 26.3108 8.25406 26.7378 7.82706C27.1648 7.40007 27.7439 7.16018 28.3478 7.16018ZM18.7849 9.89244C21.2003 9.89244 23.5169 10.852 25.2249 12.56C26.9329 14.268 27.8924 16.5845 27.8924 19C27.8924 21.4154 26.9329 23.732 25.2249 25.44C23.5169 27.148 21.2003 28.1075 18.7849 28.1075C16.3694 28.1075 14.0529 27.148 12.3449 25.44C10.6369 23.732 9.67735 21.4154 9.67735 19C9.67735 16.5845 10.6369 14.268 12.3449 12.56C14.0529 10.852 16.3694 9.89244 18.7849 9.89244ZM18.7849 13.5354C17.3356 13.5354 15.9457 14.1112 14.9209 15.136C13.8961 16.1608 13.3204 17.5507 13.3204 19C13.3204 20.4492 13.8961 21.8392 14.9209 22.864C15.9457 23.8888 17.3356 24.4645 18.7849 24.4645C20.2342 24.4645 21.6241 23.8888 22.6489 22.864C23.6737 21.8392 24.2494 20.4492 24.2494 19C24.2494 17.5507 23.6737 16.1608 22.6489 15.136C21.6241 14.1112 20.2342 13.5354 18.7849 13.5354Z" fill="#004077"/>
</svg>
