<svg width="335" height="55" viewBox="0 0 335 55" fill="none" xmlns="http://www.w3.org/2000/svg">
<path d="M159.612 54.8649V19.3989L145.936 45.7479H139.829L125.999 19.3989V54.8649H115.102V0H126.925L142.845 30.8339L158.84 0H170.585V54.8649H159.612Z" fill="#808080"/>
<path d="M218.132 43.8931H182.532V54.863H218.132V43.8931Z" fill="#808080"/>
<path d="M218.132 0.00192261H182.532V10.9757H218.132V0.00192261Z" fill="#808080"/>
<path d="M44.5094 54.8649V19.3989L30.8339 45.7479H24.7268L10.8962 19.3989V54.8649H0V0H11.8227L27.7406 30.8339L43.738 0H55.4832V54.8649H44.5094Z" fill="#808080"/>
<path d="M103.032 43.8931H67.428V54.863H103.032V43.8931Z" fill="#808080"/>
<path d="M85.2298 10.9776C88.9917 10.9776 92.054 14.0399 92.054 17.8018C92.054 21.5657 88.9917 24.626 85.2298 24.626C81.4659 24.626 78.4056 21.5638 78.4056 17.8018C78.4037 14.0399 81.4659 10.9776 85.2298 10.9776ZM85.2298 0C75.3957 0 67.428 7.97158 67.428 17.8018C67.428 27.6321 75.3957 35.5998 85.2298 35.5998C95.0601 35.5998 103.032 27.6321 103.032 17.8018C103.032 7.97158 95.0601 0 85.2298 0Z" fill="#808080"/>
<path d="M239.861 20.2478V54.8649H228.964V0.00192261H237.773L265.591 35.5494V0.0794483H276.565V54.8649H267.448L239.861 20.2478Z" fill="#808080"/>
<path d="M335 0.00192261H287.399V10.9757H335V0.00192261Z" fill="#808080"/>
<path d="M316.685 21.9495H305.711V54.8669H316.685V21.9495Z" fill="#808080"/>
</svg>
