<svg width="66" height="34" viewBox="0 0 66 34" fill="none" xmlns="http://www.w3.org/2000/svg">
<path d="M28.3073 34V12.0215L19.6099 28.3501H15.7259L6.92984 12.0215V34H0V0H7.51904L17.6426 19.1079L27.8167 0H35.2865V34H28.3073Z" fill="#808080"/>
<path d="M65.5266 27.2007H42.8832V33.9988H65.5266V27.2007Z" fill="#808080"/>
<path d="M54.2049 6.80288C56.5975 6.80288 58.545 8.70058 58.545 11.0319C58.545 13.3643 56.5975 15.2608 54.2049 15.2608C51.8112 15.2608 49.8649 13.3631 49.8649 11.0319C49.8636 8.70058 51.8112 6.80288 54.2049 6.80288ZM54.2049 0C47.9506 0 42.8832 4.94002 42.8832 11.0319C42.8832 17.1237 47.9506 22.0613 54.2049 22.0613C60.4568 22.0613 65.5266 17.1237 65.5266 11.0319C65.5266 4.94002 60.4568 0 54.2049 0Z" fill="#808080"/>
</svg>
