<svg width="255" height="268" viewBox="0 0 255 268" fill="none" xmlns="http://www.w3.org/2000/svg">
<g style="mix-blend-mode:multiply">
<path d="M217.112 101.675C233.774 127.441 245.377 155.017 250.938 182.826C253.336 194.839 254.605 206.898 254.659 218.826C254.729 235.232 251.511 253.163 235.893 261.826C222.542 269.237 203.722 267.728 186.681 264.302C143.518 255.615 102.065 235.936 69.7387 208.793C37.4129 181.65 14.3694 147.166 4.73119 111.514C-1.03935 90.1876 -2.02947 68.1343 5.3036 48.5098C12.6367 28.893 28.8808 11.914 51.8083 4.29474C104.053 -13.0788 153.28 27.0133 185.614 61.4974C197.495 74.1833 208.046 87.6582 217.112 101.675Z" fill="#F5A4C7"/>
</g>
</svg>
