<svg width="1298" height="1196" viewBox="0 0 1298 1196" fill="none" xmlns="http://www.w3.org/2000/svg">
<g style="mix-blend-mode:multiply">
<path d="M935.284 205.433C940.577 214.438 945.504 223.833 950.041 233.617C999.877 341.195 991.926 470.288 943.35 578.416C910.584 651.372 854.469 720.157 776.908 739.634C713.736 755.513 647.173 736.311 587.048 711.267C505.156 677.172 426.564 630.75 368.41 563.797C310.256 496.844 274.351 407.185 285.372 319.175C296.095 233.525 350.789 156.674 422.989 109.404C589.546 0.359447 832.198 30.1009 935.284 205.433Z" fill="#FCAF17"/>
</g>
<g style="mix-blend-mode:multiply">
<path d="M642.819 300.867C692.174 377.191 726.544 458.877 743.018 541.25C750.122 576.834 753.879 612.556 754.04 647.888C754.246 696.487 744.714 749.6 698.452 775.263C658.904 797.214 603.156 792.746 552.678 782.596C424.822 756.864 302.029 698.573 206.275 618.17C110.52 537.767 42.2615 435.62 13.7116 330.012C-3.38175 266.84 -6.31464 201.515 15.4071 143.384C37.1289 85.2756 85.2468 34.981 153.162 12.4114C307.918 -39.0518 453.738 79.7077 549.516 181.855C584.711 219.433 615.964 259.348 642.819 300.867Z" fill="#F5A4C7"/>
</g>
<g style="mix-blend-mode:multiply">
<path d="M647.515 1021.26C612.504 1063.03 575.636 1099.19 542.206 1126.34C496.631 1163.37 429.06 1206.38 367.148 1193.75C313.394 1182.8 255.377 1132.64 217.57 1095.38C107.38 986.73 41.2983 808.189 88.4768 656.022C129.675 523.171 260.418 426.867 398.952 414.15C516.084 403.381 650.723 444.235 732.386 531.168C864.366 671.741 766.664 879.083 647.515 1021.26Z" fill="#72C6A5"/>
</g>
<g style="mix-blend-mode:multiply">
<path d="M733.9 354.116C491.088 547.092 402.482 683.288 382.502 722.356C362.819 760.827 345.909 801.338 339.516 844.094C333.123 886.85 337.912 932.287 359.382 969.819C382.57 1010.35 423.493 1038.58 467.487 1054.25C511.48 1069.9 558.705 1074.12 605.379 1075.56C711.261 1078.86 817.556 1068.64 920.895 1045.25C986.358 1030.42 1051.18 1010.1 1109.63 977.083C1133.97 963.335 1206.85 916.591 1252.5 838.824C1370.71 637.508 1230.25 344.401 1107.75 278.892C1066.1 256.62 1022.56 250.365 1022.56 250.365C1008.58 248.349 958.702 242.368 881.805 269.337C810.109 294.473 762.037 331.753 733.9 354.116Z" fill="#3C9CD7"/>
</g>
</svg>
